<?xml version="1.0" encoding="utf-8"?>
<!-- Generator: Adobe Illustrator 28.0.0, SVG Export Plug-In . SVG Version: 6.00 Build 0)  -->
<svg version="1.1" id="Слой_1" xmlns="http://www.w3.org/2000/svg" xmlns:xlink="http://www.w3.org/1999/xlink" x="0px" y="0px"
	 viewBox="0 0 595.3 841.9" style="enable-background:new 0 0 595.3 841.9;" xml:space="preserve">
<style type="text/css">
	.st0{fill:#FF0007;}
	.st1{fill:#FFFFFF;}
</style>
<g>
	<g>
		<path class="st0" d="M124.6,452.6c2.1,0,3.8,0,5.5,0c11.2,0,22.4,0.3,33.5-0.1c4.9-0.2,7.3,1.3,9.6,5.8
			c17.4,33.8,44.8,55.2,81.9,63.2c53.9,11.6,108-15.3,132.1-64.7c1.4-2.9,2.9-4.2,6.3-4.2c12.3,0.2,24.6,0.1,36.8,0.1
			c1.4,0,2.8,0.2,4.2,0.3c-13,49.4-64.2,109.5-144.8,114.3C206.5,572.1,143.6,516.7,124.6,452.6z"/>
		<path class="st0" d="M123.1,357.6c4.6-10.5,8-20.5,13.2-29.6c28-49.2,69.8-78.2,126.4-84.9c30.8-3.6,60.1,1.9,88.1,15
			c2.6,1.2,3.7,2.5,3.8,5.5c0.2,7.2,1.3,14.4,1.5,21.7c0.1,2.3-1,5.1-2.5,7c-3.1,3.9-6.8,7.4-9.1,9.8c-13.2-4.9-24.8-10.7-37-13.5
			c-43.9-9.8-82.2,1.7-114.1,33.5c-9.3,9.3-16.4,20.3-22.1,32.1c-0.6,1.3-2.2,3.1-3.4,3.1C153.5,357.6,139,357.6,123.1,357.6z"/>
		<path class="st0" d="M304.9,356.4c7-6.9,14.1-13.9,21.1-20.8c12.8-12.8,25.6-25.6,38.5-38.3c2.5-2.5,3.5-4.9,3.1-8.3
			c-0.7-6.6-0.9-13.2-1.7-19.8c-1.1-8.6,1.4-15.5,7.7-21.7c13.3-12.8,26.1-26,39.2-38.9c1.5-1.5,3.9-2,5.9-3
			c0.9,2.2,2.5,4.2,2.7,6.5c0.9,8.2,1.5,16.5,2.2,25.8c3.9-3.7,7-6.9,10.3-10c5.7-5.3,11.4-5.2,17.1-0.1
			c11.4,10.3,13.6,16.1,0.6,27.5c-1.1,1-2.1,2.2-3.7,4c7.2,0.6,13.6,1.2,20,1.7c1.6,0.1,3.3-0.1,4.7,0.4c1.6,0.6,3.8,1.5,4.3,2.9
			c0.5,1.3-0.5,3.6-1.6,4.9c-3.1,3.5-6.6,6.7-9.9,10.1c-10.1,10.1-20.5,20-30.3,30.4c-7.3,7.8-16.3,7.9-25.7,7.1
			c-2-0.2-4.2-0.1-6.1-0.7c-8.6-2.6-14.2,1.1-19.9,7.3c-9.5,10.5-19.7,20.3-29.8,30.3c-1.8,1.8-4.3,3.8-6.6,3.9
			c-13.8,0.4-27.7,0.2-41.5,0.2C305.3,357.3,305.1,356.8,304.9,356.4z"/>
		<path class="st0" d="M215.8,453c43.2,0,85.1,0,128.2,0c-16.9,20.8-37.6,31.5-63.3,31.8C254.3,485,233.1,474.2,215.8,453z"/>
		<path class="st1" d="M167.8,367.1c11.8,0,23.1-0.1,34.4,0.1c1.7,0,3.3,2,4.9,3.1c6.8,4.8,9.7,11.2,8.2,19.5
			c-0.3,1.5,0.2,3.2-0.1,4.7c-0.6,3.8-1.4,7.5-2,11c0.7,3.7,1.9,7.4,2,11.2c0.3,8.8,0.1,17.6,0.1,26.7c-5.1,0-9.7,0-14.8,0
			c0-9.2,0-18.5,0-28.1c-6.1,0-11.8,0-18,0c0,9.3,0,18.5,0,28.1c-5.1,0-9.7,0-14.7,0C167.8,418.3,167.8,393,167.8,367.1z
			 M200.1,382.4c-6.1,0-11.6,0-17.3,0c0,6,0,11.7,0,17.4c5.9,0,11.5,0,17.3,0C200.1,393.9,200.1,388.4,200.1,382.4z"/>
		<path class="st1" d="M478.7,415.2c-6.3,0-11.8,0-17.9,0c0,9.5,0,18.8,0,28.4c-5.2,0-9.7,0-14.5,0c0-25.3,0-50.6,0-76.5
			c5.7,0,11.3,0,16.9,0c3.1,0,6.4,0.6,9.4-0.1c9.8-2.1,14.4,5,20,10.5c0.6,0.6,0.8,1.7,0.8,2.6c0.1,6.6,0.3,13.2-0.1,19.8
			c-0.1,1.9-1.9,3.7-2,5.2c0.7,3.7,1.9,7.5,2,11.2c0.3,8.9,0.1,17.9,0.1,27.2c-5,0-9.6,0-14.7,0
			C478.7,434.2,478.7,424.9,478.7,415.2z M478.5,382.3c-6.1,0-11.7,0-17.5,0c0,5.9,0,11.6,0,17.3c6,0,11.7,0,17.5,0
			C478.5,393.8,478.5,388.4,478.5,382.3z"/>
		<path class="st1" d="M223.4,443.8c0-26,0-51.1,0-76.7c11.9,0,23.5,0,35.1,0.1c1,0,2.1,1.2,3.1,1.9c7.4,5.4,10.4,12.3,9.6,21.8
			c-0.9,12-0.4,24.2-0.1,36.3c0.1,3.8-1.4,6.3-3.7,9.1c-4.9,6-10.5,8.4-18.3,7.7C240.6,443.3,232.1,443.8,223.4,443.8z M238.4,428.8
			c6.2,0,11.8,0,17.4,0c0-15.7,0-31,0-46.3c-6,0-11.7,0-17.4,0C238.4,398.2,238.4,413.4,238.4,428.8z"/>
		<path class="st1" d="M326.7,393.2c-5.2,0-9.8,0-14.7,0c0-3.6,0-7,0-10.8c-6.1,0-11.9,0-17.8,0c0,5.1,0,10.1,0,15.7
			c5.6,0,11.3-0.3,16.9,0.1c2.4,0.2,4.9,1.5,6.9,2.8c7.3,4.8,10.1,11.6,8.6,20.2c0,0.3-0.1,0.6,0,0.9c2.3,9.7-3.3,17.5-10.4,19.9
			c-8.2,2.8-19.1,2.9-27.2-0.1c-9.1-3.5-13-13.1-9.3-24.1c4.1,0,8.8,0,14,0c0,3.6,0,7.1,0,11c6.1,0,11.7,0,17.7,0c0-5,0-10.1,0-15.8
			c-5.5,0-11-0.2-16.5,0.1c-3.4,0.1-5.7-1.2-8.3-3.3c-6.5-5.2-9.2-11.6-7.8-19.7c0-0.3,0.1-0.6,0-0.9c-2.5-9.9,4.1-15.3,10.4-20.8
			c1-0.9,2.9-1.1,4.3-1.2c4.6-0.1,9.2,0.3,13.7-0.1c5.7-0.6,9.4,1.8,13.7,5.3C328,378.2,326.6,385.4,326.7,393.2z"/>
		<path class="st1" d="M437.7,405.3c0,7.7,0.2,15.4-0.1,23.1c-0.1,2.5-1.6,5.1-3,7.3c-4.5,7-11.1,9.6-19.3,8.2
			c-0.8-0.1-1.6-0.1-2.4,0c-8.4,1.5-15-1.4-19.7-8.4c-1.4-2-2.8-4.6-2.8-6.9c-0.2-15.2,0-30.5-0.2-45.8c0-3.2,1.2-5.4,3.1-7.9
			c5.2-6.5,11.5-9.3,19.6-7.9c0.6,0.1,1.3,0.1,1.9,0c9.4-2.1,15.9,2.6,21.2,9.6c1,1.4,1.6,3.4,1.6,5.1
			C437.8,389.6,437.7,397.4,437.7,405.3z M405.4,428.9c5.9,0,11.5,0,17.3,0c0-15.6,0-31,0-46.5c-5.9,0-11.5,0-17.3,0
			C405.4,398,405.4,413.3,405.4,428.9z"/>
		<path class="st1" d="M96.3,443.6c-4.7,0-9.2,0-14.4,0c0-10.1,0-20,0-30.3c-5.6,0-10.6,0-16.1,0c0,10,0,19.9,0,30.1
			c-5.1,0-9.7,0-14.6,0c0-25.3,0-50.5,0-76.1c4.6,0,9.1,0,14.3,0c0,10.2,0,20.3,0,30.6c5.7,0,10.7,0,16.2,0c0-10.1,0-20.1,0-30.5
			c5.1,0,9.7,0,14.6,0C96.3,392.9,96.3,418.1,96.3,443.6z"/>
		<path class="st1" d="M159.3,443.6c-4.9,0-9.4,0-14.4,0c-0.6-2.1-1.7-4.3-1.9-6.5c-0.4-5.2-3.2-7-8.1-6.1c-0.3,0.1-0.6,0-0.9,0
			c-10.6,0-10.5,0-13.9,9.8c-0.4,1.3-2.3,2.7-3.7,2.9c-3.7,0.4-7.5,0.1-11.8,0.1c3.2-11.9,6.3-23.2,9.3-34.6
			c3.4-12.6,6.8-25.1,10-37.8c0.8-3.2,2.1-4.6,5.7-4.5c10.4,0.2,10.4,0,13,10.2c5.2,20.5,10.4,41.1,15.6,61.6
			C158.6,440.3,158.9,441.8,159.3,443.6z M137.6,415.9c-1.6-6.4-3.1-12.4-4.6-18.5c-0.3,0-0.6,0-0.9,0c-1.6,6.1-3.3,12.2-5,18.5
			C130.7,415.9,133.9,415.9,137.6,415.9z"/>
		<path class="st1" d="M349.4,414.9c0,10,0,19,0,28.5c-5,0-9.6,0-14.7,0c0-25.1,0-50.4,0-76.6c2.6,0,5.2,0,7.8,0
			c6.4,0,13.1,1.1,19.3,0c9.9-1.8,13.9,5.4,19.4,10.7c0.6,0.6,0.8,2,0.8,3c0.1,6.8,0.1,13.5,0,20.3c0,1.5-0.9,3.2-1.9,4.5
			c-5.3,7.5-12.1,11.3-21.6,9.6C355.8,414.5,352.9,414.9,349.4,414.9z M367.2,382.4c-6.1,0-11.6,0-17.3,0c0,6,0,11.7,0,17.3
			c6,0,11.5,0,17.3,0C367.2,393.9,367.2,388.3,367.2,382.4z"/>
		<path class="st0" d="M215.4,357.6c20.7-31.3,67.4-42.1,97.9-25.1c-8,8.1-15.9,16.1-24,24.1c-0.7,0.7-2,1-3,1
			C262.9,357.6,239.5,357.6,215.4,357.6z"/>
		<path class="st1" d="M515.7,382.1c-5,0-9.2,0-13.8,0c0-5,0-9.6,0-14.6c13.9,0,27.8,0,42.2,0c0,4.6,0,9.4,0,14.6
			c-4.4,0-8.7,0-13.5,0c0,20.7,0,40.9,0,61.5c-5.1,0-9.7,0-14.8,0C515.7,423.2,515.7,403,515.7,382.1z"/>
		<path class="st0" d="M435.9,357.6c-12.8,0-24.6-0.5-36.4,0.2c-6.9,0.4-11.1-0.9-13.9-7.9c-4-9.9-6.1-6.4,2.5-15
			c0.2-0.2,0.5-0.4,0.7-0.7c4.5-7.5,11.4-8.1,19.1-6.8c2.3,0.4,4.8,1,7,0.6c7.6-1.6,10.7,2.7,12.9,8.8
			C430.3,343.6,433.1,350.2,435.9,357.6z"/>
	</g>
</g>
</svg>
